<svg width="866" height="317" viewBox="0 0 866 317" fill="none" xmlns="http://www.w3.org/2000/svg">
<path d="M6.912 248L72.448 66.24H129.536L195.072 248H143.872L133.632 218.048H68.096L57.856 248H6.912ZM81.408 179.136H120.576L101.12 121.536L81.408 179.136ZM212.836 112.32H261.22L261.988 141.248C267.62 122.304 278.116 112.32 295.012 112.32H306.788V147.392H294.5C271.204 147.392 262.5 156.608 262.5 176.32V248H212.836V112.32ZM329.586 66.24H379.25V131.776C387.698 117.44 402.034 109.248 418.674 109.248C454.002 109.248 476.018 136.64 476.018 180.16C476.018 223.68 454.002 251.072 418.674 251.072C400.754 251.072 386.418 242.624 378.738 228.288L377.97 248H329.586V66.24ZM376.946 180.16C376.946 201.664 386.418 216 401.266 216C415.09 216 425.33 201.664 425.33 180.16C425.33 158.144 415.858 144.064 401.266 144.064C386.418 144.064 376.946 158.144 376.946 180.16Z" fill="black"/>
<path d="M586.12 252.096C528.52 252.096 493.96 215.744 493.96 157.376C493.96 98.496 528.52 62.144 586.12 62.144C643.72 62.144 678.024 98.496 678.024 157.376C678.024 215.744 643.72 252.096 586.12 252.096ZM545.928 157.376C545.928 191.936 560.52 211.904 586.12 211.904C611.976 211.904 626.568 191.936 626.568 157.376C626.568 122.56 611.976 102.336 586.12 102.336C560.52 102.336 545.928 122.56 545.928 157.376ZM748.44 184.768C751 200.896 762.52 211.136 781.464 211.136C794.776 211.136 803.992 205.76 803.736 195.776C803.224 185.792 795.032 180.672 771.992 175.296C725.912 164.544 701.848 147.648 701.848 118.464C701.848 83.904 731.544 62.144 777.112 62.144C818.84 62.144 847.768 87.488 852.12 126.144L802.712 128.192C801.432 111.552 791.192 101.568 775.832 101.568C761.24 101.568 751.512 108.736 752.792 119.488C753.56 130.24 766.104 134.592 783.256 138.432C828.824 147.136 854.424 165.312 854.424 195.008C854.424 230.08 824.216 251.072 780.696 251.072C733.336 251.072 701.08 226.496 698.52 187.072L748.44 184.768Z" fill="#075450"/>
</svg>
